#!OML:ASF H:\Terrain\Patient Classification 1\Walking\steve\steve.ASF
:FULLY-SPECIFIED
:DEGREES
157
root 7.25093 15.9846 -0.50808 6.9212 -1.97506 4.35137
lowerback -1.90721 -1.21908 -5.99817
upperback -2.71887 -1.59191 -0.400929
thorax -1.58413 -0.693307 2.93686
lowerneck -9.93064 0.81803 -0.844691
upperneck 13.0912 1.16079 0.544904
head 5.57471 0.562485 0.398011
rclavicle -1.39367e-014 -2.5842e-015
rhumerus -72.3188 -26.1417 -40.996
rradius 15.0622
rwrist 29.0461
rhand -15.5785 -36.5943
rfingers 7.12502
rthumb 10.6068 -66.3066
lclavicle -1.39367e-014 -2.5842e-015
lhumerus 11.2299 -6.87031 81.374
lradius 33.5919
lwrist 26.7678
lhand -24.3985 -12.6504
lfingers 7.12502
lthumb 2.09253 17.3191
rfemur -45.2754 3.04434 18.1631
rtibia 32.6949
rfoot -18.0677 3.32696
rtoes -12.3788
lfemur 8.93522 3.76184 -28.21
ltibia 10.5525
lfoot -11.7867 -13.3809
ltoes 6.86884
158
root 7.24991 15.945 -0.267749 6.76825 -1.41697 4.84917
lowerback -1.61371 -1.49518 -6.42767
upperback -2.64727 -1.9777 -0.484908
thorax -1.62937 -0.879298 3.09274
lowerneck -9.98332 0.828617 -0.647724
upperneck 12.8429 1.17145 0.355557
head 5.50841 0.564347 0.306497
rclavicle -8.83194e-015 2.87244e-014
rhumerus -74.3025 -26.107 -37.979
rradius 14.961
rwrist 30.3607
rhand -15.5994 -35.5972
rfingers 7.12502
rthumb 10.5866 -65.3106
lclavicle -8.83194e-015 2.87244e-014
lhumerus 13.2721 -6.97083 80.6993
lradius 33.7883
lwrist 27.3275
lhand -24.4296 -12.6553
lfingers 7.12502
lthumb 2.06248 17.3145
rfemur -45.8097 2.26689 17.882
rtibia 30.9519
rfoot -17.2566 5.12432
rtoes -7.96331
lfemur 12.1217 3.06604 -28.636
ltibia 6.42113
lfoot -10.0522 -12.7725
ltoes 7.43434
159
root 7.23703 15.9054 -0.0406712 6.97765 -0.624049 4.93007
lowerback -1.44345 -1.84232 -6.54753
upperback -2.72323 -2.45547 -0.404053
thorax -1.74811 -1.10956 3.24555
lowerneck -9.88204 0.852901 -0.506278
upperneck 12.5036 1.19856 0.230819
head 5.38686 0.57643 0.244514
rclavicle 1.49228e-014 -1.59028e-015
rhumerus -75.8801 -25.6001 -35.8163
rradius 15.0522
rwrist 30.589
rhand -15.205 -35.0982
rfingers 7.12502
rthumb 10.967 -64.7917
lclavicle 1.49228e-014 -1.59028e-015
lhumerus 15.3277 -7.11945 79.9167
lradius 33.7422
lwrist 27.9867
lhand -24.8351 -13.4736
lfingers 7.12502
lthumb 1.67082 16.4996
rfemur -46.5694 1.62954 17.9932
rtibia 29.0721
rfoot -16.7124 5.91748
rtoes -7.43949
lfemur 16.0717 2.14264 -28.6634
ltibia 3.49861e-014
lfoot -7.15006 -11.3981
ltoes 7.86308
160
root 7.23165 15.8606 0.188785 7.22643 0.00336554 4.77118
lowerback -1.6243 -2.10724 -6.30279
upperback -2.61703 -2.78897 -0.267024
thorax -1.50518 -1.28947 3.23733
lowerneck -10.2378 0.876136 -0.553537
upperneck 12.469 1.24092 0.220866
head 5.43597 0.594136 0.254106
rclavicle -4.05956e-015 -2.62396e-014
rhumerus -77.0163 -25.0749 -34.2899
rradius 15.2015
rwrist 30.3151
rhand -15.1846 -35.1096
rfingers 7.12502
rthumb 10.9867 -64.8021
lclavicle -4.05956e-015 -2.62396e-014
lhumerus 17.6964 -7.07884 79.191
lradius 33.5748
lwrist 28.3381
lhand -25.2059 -14.35
lfingers 7.12502
lthumb 1.31273 15.6257
rfemur -47.2258 0.655032 18.7327
rtibia 27.1256
rfoot -16.3163 6.95983
rtoes -10.111
lfemur 16.7889 1.39862 -28.4382
ltibia 6.04305e-014
lfoot -7.09352 -11.3798
ltoes 9.7677
161
root 7.23044 15.8096 0.420293 7.44263 0.48259 4.84158
lowerback -1.77847 -2.2692 -6.18398
upperback -2.55998 -2.99156 -0.27162
thorax -1.34453 -1.39897 3.15525
lowerneck -10.015 0.875271 -0.586894
upperneck 11.941 1.24082 0.232743
head 5.23349 0.595148 0.259925
rclavicle 8.33343e-015 -9.93923e-016
rhumerus -78.244 -24.646 -32.6662
rradius 15.1202
rwrist 30.4498
rhand -15.4389 -35.0104
rfingers 7.12502
rthumb 10.7414 -64.7158
lclavicle 8.33343e-015 -9.93923e-016
lhumerus 19.7189 -7.19013 78.6379
lradius 33.7711
lwrist 28.5995
lhand -25.3016 -14.4431
lfingers 7.12502
lthumb 1.22026 15.5332
rfemur -47.8207 -0.310633 19.2796
rtibia 25.3399
rfoot -15.4662 8.81669
rtoes -13.4095
lfemur 17.5166 0.783249 -28.4823
ltibia 3.18055e-015
lfoot -7.17108 -11.3468
ltoes 10.6911
162
root 7.22572 15.7745 0.653302 7.6066 0.916428 4.88248
lowerback -1.51538 -2.4292 -6.08615
upperback -2.79008 -3.23398 -0.274244
thorax -1.71124 -1.50589 3.11255
lowerneck -9.42091 0.864966 -0.356193
upperneck 11.4662 1.21185 0.0493045
head 4.98885 0.580529 0.158253
rclavicle -2.73733e-014 -1.92821e-014
rhumerus -79.2662 -23.4582 -32.0731
rradius 15.1892
rwrist 29.7253
rhand -15.3149 -35.1653
rfingers 7.12502
rthumb 10.861 -64.8645
lclavicle -2.73733e-014 -1.92821e-014
lhumerus 21.1017 -7.32493 78.0642
lradius 33.9667
lwrist 28.9596
lhand -25.2953 -13.9475
lfingers 7.12502
lthumb 1.22637 16.0287
rfemur -48.2955 -0.373243 19.1291
rtibia 23.9816
rfoot -14.2213 10.5216
rtoes -5.99159
lfemur 18.2246 0.222868 -28.4946
ltibia 3.18055e-014
lfoot -7.54179 -11.1089
ltoes 8.12546
163
root 7.22415 15.7468 0.889218 7.59202 1.27713 4.83914
lowerback -1.03152 -2.63968 -6.02384
upperback -2.96342 -3.55452 -0.129395
thorax -2.1257 -1.64951 3.25338
lowerneck -9.44117 0.906621 -0.168086
upperneck 11.53 1.26596 -0.145792
head 5.01446 0.602083 0.0711702
rclavicle -7.60041e-015 8.74653e-015
rhumerus -79.9219 -22.072 -31.7591
rradius 15.4438
rwrist 28.5077
rhand -14.8223 -35.5616
rfingers 7.12502
rthumb 11.3361 -65.2352
lclavicle -7.60041e-015 8.74653e-015
lhumerus 22.4568 -7.16087 77.337
lradius 33.9742
lwrist 29.289
lhand -25.3314 -13.6542
lfingers 7.12502
lthumb 1.19151 16.3223
rfemur -48.6417 -0.637353 19.2316
rtibia 23.2803
rfoot -13.8261 11.3011
rtoes -4.48233
lfemur 19.1559 -0.228577 -28.4312
ltibia 0
lfoot -7.75843 -10.8483
ltoes 5.95398
